<mxfile host="app.diagrams.net" agent="Mozilla/5.0 (Windows NT 10.0; Win64; x64) AppleWebKit/537.36 (KHTML, like Gecko) Chrome/131.0.0.0 Safari/537.36" version="24.8.6">
  <diagram id="rPydXPhVP1zePUt8TNep" name="Page-1">
    <mxGraphModel dx="2251" dy="1646" grid="1" gridSize="10" guides="1" tooltips="1" connect="1" arrows="1" fold="1" page="1" pageScale="1" pageWidth="827" pageHeight="1169" math="0" shadow="0">
      <root>
        <mxCell id="0" />
        <mxCell id="1" parent="0" />
        <mxCell id="H9e6Mwml2wm5yJOEGTOU-3" value="" style="edgeStyle=orthogonalEdgeStyle;rounded=0;orthogonalLoop=1;jettySize=auto;html=1;" edge="1" parent="1" source="H9e6Mwml2wm5yJOEGTOU-1" target="H9e6Mwml2wm5yJOEGTOU-2">
          <mxGeometry relative="1" as="geometry" />
        </mxCell>
        <mxCell id="H9e6Mwml2wm5yJOEGTOU-1" value="Start" style="ellipse;whiteSpace=wrap;html=1;" vertex="1" parent="1">
          <mxGeometry x="310" y="80" width="120" height="80" as="geometry" />
        </mxCell>
        <mxCell id="H9e6Mwml2wm5yJOEGTOU-5" value="" style="edgeStyle=orthogonalEdgeStyle;rounded=0;orthogonalLoop=1;jettySize=auto;html=1;" edge="1" parent="1" source="H9e6Mwml2wm5yJOEGTOU-2" target="H9e6Mwml2wm5yJOEGTOU-4">
          <mxGeometry relative="1" as="geometry" />
        </mxCell>
        <mxCell id="H9e6Mwml2wm5yJOEGTOU-2" value="long long H, H;" style="whiteSpace=wrap;html=1;" vertex="1" parent="1">
          <mxGeometry x="310" y="190" width="120" height="60" as="geometry" />
        </mxCell>
        <mxCell id="H9e6Mwml2wm5yJOEGTOU-7" value="" style="edgeStyle=orthogonalEdgeStyle;rounded=0;orthogonalLoop=1;jettySize=auto;html=1;" edge="1" parent="1" source="H9e6Mwml2wm5yJOEGTOU-4" target="H9e6Mwml2wm5yJOEGTOU-6">
          <mxGeometry relative="1" as="geometry" />
        </mxCell>
        <mxCell id="H9e6Mwml2wm5yJOEGTOU-4" value="cin &amp;gt;&amp;gt; H &amp;gt;&amp;gt; N;" style="shape=parallelogram;perimeter=parallelogramPerimeter;whiteSpace=wrap;html=1;fixedSize=1;" vertex="1" parent="1">
          <mxGeometry x="310" y="270" width="120" height="60" as="geometry" />
        </mxCell>
        <mxCell id="H9e6Mwml2wm5yJOEGTOU-9" value="" style="edgeStyle=orthogonalEdgeStyle;rounded=0;orthogonalLoop=1;jettySize=auto;html=1;" edge="1" parent="1" source="H9e6Mwml2wm5yJOEGTOU-6" target="H9e6Mwml2wm5yJOEGTOU-8">
          <mxGeometry relative="1" as="geometry" />
        </mxCell>
        <mxCell id="H9e6Mwml2wm5yJOEGTOU-6" value="int i = 0;" style="whiteSpace=wrap;html=1;" vertex="1" parent="1">
          <mxGeometry x="310" y="350" width="120" height="60" as="geometry" />
        </mxCell>
        <mxCell id="H9e6Mwml2wm5yJOEGTOU-11" value="" style="edgeStyle=orthogonalEdgeStyle;rounded=0;orthogonalLoop=1;jettySize=auto;html=1;" edge="1" parent="1" source="H9e6Mwml2wm5yJOEGTOU-8" target="H9e6Mwml2wm5yJOEGTOU-10">
          <mxGeometry relative="1" as="geometry" />
        </mxCell>
        <mxCell id="H9e6Mwml2wm5yJOEGTOU-12" value="true" style="edgeLabel;html=1;align=center;verticalAlign=middle;resizable=0;points=[];" vertex="1" connectable="0" parent="H9e6Mwml2wm5yJOEGTOU-11">
          <mxGeometry x="-0.4" y="3" relative="1" as="geometry">
            <mxPoint as="offset" />
          </mxGeometry>
        </mxCell>
        <mxCell id="H9e6Mwml2wm5yJOEGTOU-56" style="edgeStyle=orthogonalEdgeStyle;rounded=0;orthogonalLoop=1;jettySize=auto;html=1;entryX=0;entryY=0.5;entryDx=0;entryDy=0;" edge="1" parent="1" source="H9e6Mwml2wm5yJOEGTOU-8" target="H9e6Mwml2wm5yJOEGTOU-47">
          <mxGeometry relative="1" as="geometry">
            <Array as="points">
              <mxPoint x="-150" y="480" />
              <mxPoint x="-150" y="1420" />
            </Array>
          </mxGeometry>
        </mxCell>
        <mxCell id="H9e6Mwml2wm5yJOEGTOU-57" value="false" style="edgeLabel;html=1;align=center;verticalAlign=middle;resizable=0;points=[];" vertex="1" connectable="0" parent="H9e6Mwml2wm5yJOEGTOU-56">
          <mxGeometry x="-0.0901" y="1" relative="1" as="geometry">
            <mxPoint as="offset" />
          </mxGeometry>
        </mxCell>
        <mxCell id="H9e6Mwml2wm5yJOEGTOU-8" value="i &amp;lt; 3" style="rhombus;whiteSpace=wrap;html=1;" vertex="1" parent="1">
          <mxGeometry x="330" y="440" width="80" height="80" as="geometry" />
        </mxCell>
        <mxCell id="H9e6Mwml2wm5yJOEGTOU-14" value="" style="edgeStyle=orthogonalEdgeStyle;rounded=0;orthogonalLoop=1;jettySize=auto;html=1;" edge="1" parent="1" source="H9e6Mwml2wm5yJOEGTOU-10" target="H9e6Mwml2wm5yJOEGTOU-13">
          <mxGeometry relative="1" as="geometry" />
        </mxCell>
        <mxCell id="H9e6Mwml2wm5yJOEGTOU-10" value="long long hi, mi;" style="whiteSpace=wrap;html=1;" vertex="1" parent="1">
          <mxGeometry x="310" y="555" width="120" height="60" as="geometry" />
        </mxCell>
        <mxCell id="H9e6Mwml2wm5yJOEGTOU-21" value="" style="edgeStyle=orthogonalEdgeStyle;rounded=0;orthogonalLoop=1;jettySize=auto;html=1;" edge="1" parent="1" source="H9e6Mwml2wm5yJOEGTOU-13" target="H9e6Mwml2wm5yJOEGTOU-20">
          <mxGeometry relative="1" as="geometry" />
        </mxCell>
        <mxCell id="H9e6Mwml2wm5yJOEGTOU-13" value="&#xa;&lt;span style=&quot;color: rgb(0, 0, 0); font-family: Helvetica; font-size: 12px; font-style: normal; font-variant-ligatures: normal; font-variant-caps: normal; font-weight: 400; letter-spacing: normal; orphans: 2; text-align: center; text-indent: 0px; text-transform: none; widows: 2; word-spacing: 0px; -webkit-text-stroke-width: 0px; white-space: normal; background-color: rgb(251, 251, 251); text-decoration-thickness: initial; text-decoration-style: initial; text-decoration-color: initial; display: inline !important; float: none;&quot;&gt;cin &amp;gt;&amp;gt; h1 &amp;gt;&amp;gt; mi&lt;/span&gt;&#xa;&#xa;" style="shape=parallelogram;perimeter=parallelogramPerimeter;whiteSpace=wrap;html=1;fixedSize=1;" vertex="1" parent="1">
          <mxGeometry x="310" y="640" width="120" height="40" as="geometry" />
        </mxCell>
        <mxCell id="H9e6Mwml2wm5yJOEGTOU-22" style="edgeStyle=orthogonalEdgeStyle;rounded=0;orthogonalLoop=1;jettySize=auto;html=1;entryX=0;entryY=0.5;entryDx=0;entryDy=0;" edge="1" parent="1" source="H9e6Mwml2wm5yJOEGTOU-20" target="H9e6Mwml2wm5yJOEGTOU-49">
          <mxGeometry relative="1" as="geometry">
            <mxPoint x="10" y="765" as="targetPoint" />
            <Array as="points">
              <mxPoint x="-70" y="765" />
              <mxPoint x="-70" y="1480" />
            </Array>
          </mxGeometry>
        </mxCell>
        <mxCell id="H9e6Mwml2wm5yJOEGTOU-24" value="false" style="edgeStyle=orthogonalEdgeStyle;rounded=0;orthogonalLoop=1;jettySize=auto;html=1;" edge="1" parent="1" source="H9e6Mwml2wm5yJOEGTOU-20" target="H9e6Mwml2wm5yJOEGTOU-23">
          <mxGeometry relative="1" as="geometry" />
        </mxCell>
        <mxCell id="H9e6Mwml2wm5yJOEGTOU-20" value="if&lt;div&gt;(hi &amp;lt; 0 || hi &amp;gt; 1e12 || mi &amp;lt; 0 || mi &amp;gt; 1e12)&lt;/div&gt;" style="rhombus;whiteSpace=wrap;html=1;" vertex="1" parent="1">
          <mxGeometry x="215" y="720" width="310" height="90" as="geometry" />
        </mxCell>
        <mxCell id="H9e6Mwml2wm5yJOEGTOU-26" value="true" style="edgeStyle=orthogonalEdgeStyle;rounded=0;orthogonalLoop=1;jettySize=auto;html=1;" edge="1" parent="1" source="H9e6Mwml2wm5yJOEGTOU-23" target="H9e6Mwml2wm5yJOEGTOU-25">
          <mxGeometry relative="1" as="geometry" />
        </mxCell>
        <mxCell id="H9e6Mwml2wm5yJOEGTOU-29" value="" style="edgeStyle=orthogonalEdgeStyle;rounded=0;orthogonalLoop=1;jettySize=auto;html=1;" edge="1" parent="1" source="H9e6Mwml2wm5yJOEGTOU-23" target="H9e6Mwml2wm5yJOEGTOU-28">
          <mxGeometry relative="1" as="geometry" />
        </mxCell>
        <mxCell id="H9e6Mwml2wm5yJOEGTOU-30" value="false" style="edgeLabel;html=1;align=center;verticalAlign=middle;resizable=0;points=[];" vertex="1" connectable="0" parent="H9e6Mwml2wm5yJOEGTOU-29">
          <mxGeometry x="-0.35" y="4" relative="1" as="geometry">
            <mxPoint as="offset" />
          </mxGeometry>
        </mxCell>
        <mxCell id="H9e6Mwml2wm5yJOEGTOU-23" value="if&lt;div&gt;(h1 &amp;gt; 0 &amp;amp;&amp;amp; mi &amp;gt; 0)&lt;/div&gt;" style="rhombus;whiteSpace=wrap;html=1;" vertex="1" parent="1">
          <mxGeometry x="252.5" y="840" width="235" height="70" as="geometry" />
        </mxCell>
        <mxCell id="H9e6Mwml2wm5yJOEGTOU-27" style="edgeStyle=orthogonalEdgeStyle;rounded=0;orthogonalLoop=1;jettySize=auto;html=1;entryX=0;entryY=0.5;entryDx=0;entryDy=0;" edge="1" parent="1" source="H9e6Mwml2wm5yJOEGTOU-25" target="H9e6Mwml2wm5yJOEGTOU-49">
          <mxGeometry relative="1" as="geometry">
            <mxPoint x="-160" y="1260" as="targetPoint" />
            <Array as="points">
              <mxPoint x="-10" y="875" />
              <mxPoint x="-10" y="1480" />
            </Array>
          </mxGeometry>
        </mxCell>
        <mxCell id="H9e6Mwml2wm5yJOEGTOU-25" value="cout &amp;lt;&amp;lt; &quot;NO&quot; &amp;lt;&amp;lt; endl;" style="shape=parallelogram;perimeter=parallelogramPerimeter;whiteSpace=wrap;html=1;fixedSize=1;" vertex="1" parent="1">
          <mxGeometry x="50" y="845" width="160" height="60" as="geometry" />
        </mxCell>
        <mxCell id="H9e6Mwml2wm5yJOEGTOU-32" value="" style="edgeStyle=orthogonalEdgeStyle;rounded=0;orthogonalLoop=1;jettySize=auto;html=1;" edge="1" parent="1" source="H9e6Mwml2wm5yJOEGTOU-28" target="H9e6Mwml2wm5yJOEGTOU-31">
          <mxGeometry relative="1" as="geometry" />
        </mxCell>
        <mxCell id="H9e6Mwml2wm5yJOEGTOU-36" value="true" style="edgeLabel;html=1;align=center;verticalAlign=middle;resizable=0;points=[];" vertex="1" connectable="0" parent="H9e6Mwml2wm5yJOEGTOU-32">
          <mxGeometry x="-0.1282" relative="1" as="geometry">
            <mxPoint as="offset" />
          </mxGeometry>
        </mxCell>
        <mxCell id="H9e6Mwml2wm5yJOEGTOU-34" value="" style="edgeStyle=orthogonalEdgeStyle;rounded=0;orthogonalLoop=1;jettySize=auto;html=1;" edge="1" parent="1" source="H9e6Mwml2wm5yJOEGTOU-28" target="H9e6Mwml2wm5yJOEGTOU-33">
          <mxGeometry relative="1" as="geometry" />
        </mxCell>
        <mxCell id="H9e6Mwml2wm5yJOEGTOU-35" value="false" style="edgeLabel;html=1;align=center;verticalAlign=middle;resizable=0;points=[];" vertex="1" connectable="0" parent="H9e6Mwml2wm5yJOEGTOU-34">
          <mxGeometry x="-0.125" y="-1" relative="1" as="geometry">
            <mxPoint as="offset" />
          </mxGeometry>
        </mxCell>
        <mxCell id="H9e6Mwml2wm5yJOEGTOU-28" value="if&lt;div&gt;(h1 &amp;gt; 0)&lt;/div&gt;" style="rhombus;whiteSpace=wrap;html=1;" vertex="1" parent="1">
          <mxGeometry x="301.25" y="960" width="137.5" height="70" as="geometry" />
        </mxCell>
        <mxCell id="H9e6Mwml2wm5yJOEGTOU-31" value="H -= hi;" style="whiteSpace=wrap;html=1;" vertex="1" parent="1">
          <mxGeometry x="487.5" y="965" width="120" height="60" as="geometry" />
        </mxCell>
        <mxCell id="H9e6Mwml2wm5yJOEGTOU-38" value="" style="edgeStyle=orthogonalEdgeStyle;rounded=0;orthogonalLoop=1;jettySize=auto;html=1;" edge="1" parent="1" source="H9e6Mwml2wm5yJOEGTOU-33" target="H9e6Mwml2wm5yJOEGTOU-37">
          <mxGeometry relative="1" as="geometry" />
        </mxCell>
        <mxCell id="H9e6Mwml2wm5yJOEGTOU-39" value="true" style="edgeLabel;html=1;align=center;verticalAlign=middle;resizable=0;points=[];" vertex="1" connectable="0" parent="H9e6Mwml2wm5yJOEGTOU-38">
          <mxGeometry x="-0.1831" y="-4" relative="1" as="geometry">
            <mxPoint as="offset" />
          </mxGeometry>
        </mxCell>
        <mxCell id="H9e6Mwml2wm5yJOEGTOU-41" value="" style="edgeStyle=orthogonalEdgeStyle;rounded=0;orthogonalLoop=1;jettySize=auto;html=1;" edge="1" parent="1" source="H9e6Mwml2wm5yJOEGTOU-33" target="H9e6Mwml2wm5yJOEGTOU-40">
          <mxGeometry relative="1" as="geometry" />
        </mxCell>
        <mxCell id="H9e6Mwml2wm5yJOEGTOU-43" value="false" style="edgeLabel;html=1;align=center;verticalAlign=middle;resizable=0;points=[];" vertex="1" connectable="0" parent="H9e6Mwml2wm5yJOEGTOU-41">
          <mxGeometry x="-0.325" y="-1" relative="1" as="geometry">
            <mxPoint as="offset" />
          </mxGeometry>
        </mxCell>
        <mxCell id="H9e6Mwml2wm5yJOEGTOU-33" value="if&lt;div&gt;(mi &amp;gt; 0)&lt;/div&gt;" style="rhombus;whiteSpace=wrap;html=1;" vertex="1" parent="1">
          <mxGeometry x="301.25" y="1070" width="137.5" height="70" as="geometry" />
        </mxCell>
        <mxCell id="H9e6Mwml2wm5yJOEGTOU-37" value="M -= mi" style="whiteSpace=wrap;html=1;" vertex="1" parent="1">
          <mxGeometry x="527.5" y="1075" width="120" height="60" as="geometry" />
        </mxCell>
        <mxCell id="H9e6Mwml2wm5yJOEGTOU-45" value="" style="edgeStyle=orthogonalEdgeStyle;rounded=0;orthogonalLoop=1;jettySize=auto;html=1;" edge="1" parent="1" source="H9e6Mwml2wm5yJOEGTOU-40" target="H9e6Mwml2wm5yJOEGTOU-44">
          <mxGeometry relative="1" as="geometry" />
        </mxCell>
        <mxCell id="H9e6Mwml2wm5yJOEGTOU-46" value="true" style="edgeLabel;html=1;align=center;verticalAlign=middle;resizable=0;points=[];" vertex="1" connectable="0" parent="H9e6Mwml2wm5yJOEGTOU-45">
          <mxGeometry x="-0.2712" y="5" relative="1" as="geometry">
            <mxPoint as="offset" />
          </mxGeometry>
        </mxCell>
        <mxCell id="H9e6Mwml2wm5yJOEGTOU-53" value="" style="edgeStyle=orthogonalEdgeStyle;rounded=0;orthogonalLoop=1;jettySize=auto;html=1;" edge="1" parent="1" source="H9e6Mwml2wm5yJOEGTOU-40" target="H9e6Mwml2wm5yJOEGTOU-52">
          <mxGeometry relative="1" as="geometry" />
        </mxCell>
        <mxCell id="H9e6Mwml2wm5yJOEGTOU-54" value="false" style="edgeLabel;html=1;align=center;verticalAlign=middle;resizable=0;points=[];" vertex="1" connectable="0" parent="H9e6Mwml2wm5yJOEGTOU-53">
          <mxGeometry x="-0.1428" relative="1" as="geometry">
            <mxPoint as="offset" />
          </mxGeometry>
        </mxCell>
        <mxCell id="H9e6Mwml2wm5yJOEGTOU-40" value="if&lt;div&gt;(mi &amp;gt; 0)&lt;/div&gt;" style="rhombus;whiteSpace=wrap;html=1;" vertex="1" parent="1">
          <mxGeometry x="301.25" y="1190" width="137.5" height="70" as="geometry" />
        </mxCell>
        <mxCell id="H9e6Mwml2wm5yJOEGTOU-51" style="edgeStyle=orthogonalEdgeStyle;rounded=0;orthogonalLoop=1;jettySize=auto;html=1;entryX=0;entryY=0.5;entryDx=0;entryDy=0;" edge="1" parent="1" source="H9e6Mwml2wm5yJOEGTOU-44" target="H9e6Mwml2wm5yJOEGTOU-49">
          <mxGeometry relative="1" as="geometry">
            <Array as="points">
              <mxPoint x="30" y="1225" />
              <mxPoint x="30" y="1480" />
            </Array>
          </mxGeometry>
        </mxCell>
        <mxCell id="H9e6Mwml2wm5yJOEGTOU-44" value="cout &amp;lt;&amp;lt; &quot;NO&quot; &amp;lt;&amp;lt; endl;" style="shape=parallelogram;perimeter=parallelogramPerimeter;whiteSpace=wrap;html=1;fixedSize=1;" vertex="1" parent="1">
          <mxGeometry x="60" y="1195" width="160" height="60" as="geometry" />
        </mxCell>
        <mxCell id="H9e6Mwml2wm5yJOEGTOU-50" value="" style="edgeStyle=orthogonalEdgeStyle;rounded=0;orthogonalLoop=1;jettySize=auto;html=1;" edge="1" parent="1" source="H9e6Mwml2wm5yJOEGTOU-47" target="H9e6Mwml2wm5yJOEGTOU-49">
          <mxGeometry relative="1" as="geometry" />
        </mxCell>
        <mxCell id="H9e6Mwml2wm5yJOEGTOU-47" value="cout &amp;lt;&amp;lt; &quot;YES&quot; &amp;lt;&amp;lt; endl" style="shape=parallelogram;perimeter=parallelogramPerimeter;whiteSpace=wrap;html=1;fixedSize=1;" vertex="1" parent="1">
          <mxGeometry x="295" y="1390" width="150" height="60" as="geometry" />
        </mxCell>
        <mxCell id="H9e6Mwml2wm5yJOEGTOU-49" value="End" style="ellipse;whiteSpace=wrap;html=1;" vertex="1" parent="1">
          <mxGeometry x="295" y="1590" width="150" height="80" as="geometry" />
        </mxCell>
        <mxCell id="H9e6Mwml2wm5yJOEGTOU-55" style="edgeStyle=orthogonalEdgeStyle;rounded=0;orthogonalLoop=1;jettySize=auto;html=1;entryX=1;entryY=0.5;entryDx=0;entryDy=0;" edge="1" parent="1" source="H9e6Mwml2wm5yJOEGTOU-52" target="H9e6Mwml2wm5yJOEGTOU-8">
          <mxGeometry relative="1" as="geometry">
            <Array as="points">
              <mxPoint x="670" y="1340" />
              <mxPoint x="670" y="480" />
            </Array>
          </mxGeometry>
        </mxCell>
        <mxCell id="H9e6Mwml2wm5yJOEGTOU-52" value="i++" style="whiteSpace=wrap;html=1;" vertex="1" parent="1">
          <mxGeometry x="310" y="1310" width="120" height="60" as="geometry" />
        </mxCell>
      </root>
    </mxGraphModel>
  </diagram>
</mxfile>
